<?xml version="1.0" encoding="UTF-8" standalone="no"?>
<!-- Generator: Adobe Illustrator 21.0.2, SVG Export Plug-In . SVG Version: 6.00 Build 0)  -->

<svg
   xmlns:dc="http://purl.org/dc/elements/1.1/"
   xmlns:cc="http://creativecommons.org/ns#"
   xmlns:rdf="http://www.w3.org/1999/02/22-rdf-syntax-ns#"
   xmlns:svg="http://www.w3.org/2000/svg"
   xmlns="http://www.w3.org/2000/svg"
   xmlns:sodipodi="http://sodipodi.sourceforge.net/DTD/sodipodi-0.dtd"
   xmlns:inkscape="http://www.inkscape.org/namespaces/inkscape"
   version="1.1"
   x="0px"
   y="0px"
   width="30"
   height="30"
   viewBox="0 0 30 30"
   enable-background="new 0 0 24 24"
   xml:space="preserve"
   id="svg3354"
   inkscape:version="0.91 r13725"
   sodipodi:docname="art-farm.svg"><metadata
   id="metadata3371"><rdf:RDF><cc:Work
       rdf:about=""><dc:format>image/svg+xml</dc:format><dc:type
         rdf:resource="http://purl.org/dc/dcmitype/StillImage" /><dc:title></dc:title></cc:Work></rdf:RDF></metadata><defs
   id="defs3369" /><sodipodi:namedview
   pagecolor="#ffffff"
   bordercolor="#666666"
   borderopacity="1"
   objecttolerance="10"
   gridtolerance="10"
   guidetolerance="10"
   inkscape:pageopacity="0"
   inkscape:pageshadow="2"
   inkscape:window-width="1366"
   inkscape:window-height="715"
   id="namedview3367"
   showgrid="false"
   inkscape:zoom="14.892886"
   inkscape:cx="10.666978"
   inkscape:cy="11.254631"
   inkscape:window-x="-8"
   inkscape:window-y="-8"
   inkscape:window-maximized="1"
   inkscape:current-layer="svg3354" />

<g
   id="Frames-24px"
   transform="translate(0,6)">
	<rect
   width="24"
   height="24"
   id="rect3365"
   x="0"
   y="0"
   style="fill:none" />
</g>
<g
   id="g4179"
   transform="matrix(1.31476,0,0,1.31476,0.08062831,-1.619846)"><g
     transform="matrix(0.65775194,0,0,0.65775194,3.9426979,4.74795)"
     id="Black">
	<g
   id="New_icons">
		<path
   style="fill:#58595b"
   inkscape:connector-curvature="0"
   id="path3358"
   d="m 8.043,19.203 2,4.5 C 10.124,23.884 10.302,24 10.5,24 c 0.198,0 0.376,-0.116 0.457,-0.297 l 2,-4.5 c 0.029,-0.065 0.042,-0.133 0.042,-0.2 C 12.999,19.002 13,19.001 13,19 L 13,1.5 C 13,1.367 12.947,1.24 12.854,1.146 l -1,-1 C 11.76,0.053 11.633,0 11.5,0 l -2,0 C 9.367,0 9.24,0.053 9.146,0.146 l -1,1 C 8.053,1.24 8,1.367 8,1.5 L 8,19 c 0,0.001 10e-4,0.002 10e-4,0.003 0,0.067 0.013,0.135 0.042,0.2 z M 9,6 12,6 12,17.793 10.854,16.647 C 10.756,16.549 10.628,16.5 10.5,16.5 c -0.128,0 -0.256,0.049 -0.354,0.146 L 9,17.793 9,6 Z M 12,5 9,5 9,4 12,4 12,5 Z M 10.5,22.269 9.096,19.11 10.5,17.707 11.904,19.11 10.5,22.269 Z M 9.707,1 11.293,1 12,1.707 12,3 9,3 9,1.707 9.707,1 Z" />
		<path
   style="fill:#58595b"
   inkscape:connector-curvature="0"
   id="path3360"
   d="M 0.576,19.764 C 3.212,24 3.212,24 3.5,24 3.672,24 3.833,23.911 3.924,23.765 l 2.5,-4 C 6.534,19.59 6.524,19.365 6.4,19.2 L 5.043,17.39 5.985,13.62 C 6,13.563 6.003,13.502 5.997,13.443 l -1.5,-13 C 4.468,0.19 4.254,0 4,0 L 3,0 C 2.746,0 2.532,0.19 2.503,0.443 l -1.5,13 C 0.996,13.503 1,13.563 1.015,13.621 L 1.957,17.391 0.6,19.2 C 0.476,19.365 0.466,19.589 0.576,19.764 Z M 3.446,1 3.554,1 4.992,13.467 4.109,17 2.891,17 2.008,13.467 3.446,1 Z M 2.75,18 3,18 3,19.5 C 3,19.776 3.224,20 3.5,20 3.776,20 4,19.776 4,19.5 L 4,18 4.25,18 5.395,19.526 3.498,22.56 C 3.026,21.806 2.24,20.544 1.605,19.526 L 2.75,18 Z" />
		<path
   style="fill:#58595b"
   inkscape:connector-curvature="0"
   id="path3362"
   d="M 18.5,0 C 18.224,0 18,0.224 18,0.5 L 18,1 16.5,1 C 16.224,1 16,1.224 16,1.5 l 0,18 c 0,0.005 0.003,0.01 0.003,0.015 0.001,0.033 0.012,0.065 0.02,0.098 0.008,0.033 0.012,0.065 0.026,0.096 0.002,0.004 0.002,0.01 0.004,0.015 l 2,4 C 18.138,23.893 18.311,24 18.5,24 c 0.189,0 0.362,-0.107 0.447,-0.276 l 2,-4 c 0.002,-0.005 0.002,-0.01 0.004,-0.015 0.014,-0.03 0.018,-0.063 0.026,-0.096 0.008,-0.033 0.019,-0.065 0.02,-0.098 C 20.997,19.51 21,19.505 21,19.5 L 21,4 22.917,4 22.006,9.924 c -0.016,0.103 0,0.207 0.047,0.3 l 0.5,1 c 0.088,0.175 0.264,0.276 0.447,0.276 0.075,0 0.151,-0.017 0.223,-0.053 0.247,-0.124 0.347,-0.424 0.224,-0.671 L 23.018,9.919 23.994,3.576 C 24.016,3.431 23.974,3.285 23.879,3.174 23.785,3.063 23.646,3 23.5,3 L 21,3 21,1.5 C 21,1.224 20.776,1 20.5,1 L 19,1 19,0.5 C 19,0.224 18.776,0 18.5,0 Z m 1.5,19 -3,0 0,-12 3,0 0,12 z M 18.5,22.382 17.309,20 19.691,20 18.5,22.382 Z M 20,6 l -3,0 0,-4 3,0 0,4 z" />
	</g>
</g><path
     inkscape:connector-curvature="0"
     id="path3373"
     d="M 1.7984147,13.310793 20.896787,13.228473"
     style="fill:none;fill-rule:evenodd;stroke:#000000;stroke-width:0.86690646px;stroke-linecap:butt;stroke-linejoin:miter;stroke-opacity:1" /><path
     inkscape:connector-curvature="0"
     id="path4177"
     d="m 1.8280057,13.541678 c -0.016349,-0.09893 -0.02996,-0.278791 -0.030247,-0.399699 L 1.797236,12.922146 4.7053553,12.89299 C 6.304821,12.87695 10.599342,12.85056 14.248735,12.83434 l 6.63526,-0.02949 0,0.403577 0,0.403578 -1.483734,0.0281 c -0.816054,0.01545 -5.096964,0.0401 -9.5131326,0.05477 l -8.0293982,0.02667 -0.029724,-0.179866 z"
     style="opacity:1;fill:#58595b;fill-opacity:1;fill-rule:nonzero;stroke:none;stroke-width:1;stroke-linecap:butt;stroke-linejoin:round;stroke-miterlimit:4;stroke-dasharray:none;stroke-dashoffset:0;stroke-opacity:1" /></g></svg>